# xmcd
#
# Track frame offsets: 
#        150
#        12158
#        23747
#        35128
#        49999
#        60863
#        68641
#        79516
#        91707
#        101327
#        113223
#        122758
#
# Disc length: 1725 seconds
#
# Revision: 0
# Processed by: cddbd v1.5.2PL0 Copyright (c) Steve Scherf et al.
# Submitted via: ExactAudioCopy v0.95b4
#
DISCID=8906bb0c
DTITLE=Roy Acuff - The Best Of Roy Acuff
DYEAR=2004
DGENRE=Country
TTITLE0=Wabash Cannonball
TTITLE1=Oh Lonesome Me
TTITLE2=Sally Goodin
TTITLE3=The Precious Jewel
TTITLE4=Hey, Good Lookin'
TTITLE5=Good Ole Mountain Dew
TTITLE6=Jambalaya
TTITLE7=The Great Speckled Bird
TTITLE8=The Ft. Worth Rag
TTITLE9=Little Moses
TTITLE10=I Saw The Light
TTITLE11=Tennessee Fox Chase
EXTD=
EXTT0=
EXTT1=
EXTT2=
EXTT3=
EXTT4=
EXTT5=
EXTT6=
EXTT7=
EXTT8=
EXTT9=
EXTT10=
EXTT11=
PLAYORDER=
